<svg width="207" height="45" viewBox="0 0 207 45" fill="none" xmlns="http://www.w3.org/2000/svg">
<rect width="207" height="45" rx="5" fill="white"/>
<path d="M37.1562 21.6797C37.1562 21.0755 36.9349 20.5964 36.4922 20.2422C36.0547 19.8828 35.4375 19.7031 34.6406 19.7031C33.974 19.7031 33.4141 19.888 32.9609 20.2578C32.513 20.6224 32.2891 21.0755 32.2891 21.6172H30.7891C30.7891 21.013 30.9531 20.4714 31.2812 19.9922C31.6146 19.513 32.0781 19.1406 32.6719 18.875C33.2656 18.6042 33.9219 18.4688 34.6406 18.4688C35.9115 18.4688 36.8984 18.7552 37.6016 19.3281C38.3047 19.8958 38.6562 20.6875 38.6562 21.7031C38.6562 22.2292 38.4948 22.7083 38.1719 23.1406C37.849 23.5729 37.3984 23.9141 36.8203 24.1641C38.1589 24.612 38.8281 25.5 38.8281 26.8281C38.8281 27.849 38.4479 28.6589 37.6875 29.2578C36.9271 29.8568 35.9115 30.1562 34.6406 30.1562C33.8854 30.1562 33.1979 30.0234 32.5781 29.7578C31.9635 29.487 31.4844 29.1042 31.1406 28.6094C30.7969 28.1146 30.625 27.526 30.625 26.8438H32.125C32.125 27.4427 32.362 27.9427 32.8359 28.3438C33.3099 28.7396 33.9115 28.9375 34.6406 28.9375C35.4583 28.9375 36.1094 28.7474 36.5938 28.3672C37.0833 27.987 37.3281 27.4844 37.3281 26.8594C37.3281 25.526 36.5026 24.8464 34.8516 24.8203H33.4453V23.5859H34.8438C35.6042 23.5703 36.1797 23.3984 36.5703 23.0703C36.9609 22.7422 37.1562 22.2786 37.1562 21.6797ZM47.1016 27.0312H42.3359L41.2656 30H39.7188L44.0625 18.625H45.375L49.7266 30H48.1875L47.1016 27.0312ZM42.7891 25.7969H46.6562L44.7188 20.4766L42.7891 25.7969ZM54.2109 24.8906H52.8281V30H51.3281V18.625H52.8281V23.6406H54L57.9766 18.625H59.8438L55.5 24.1406L60.1641 30H58.3281L54.2109 24.8906ZM67.8203 27.0312H63.0547L61.9844 30H60.4375L64.7812 18.625H66.0938L70.4453 30H68.9062L67.8203 27.0312ZM63.5078 25.7969H67.375L65.4375 20.4766L63.5078 25.7969ZM77.8125 21.6797C77.8125 21.0755 77.5911 20.5964 77.1484 20.2422C76.7109 19.8828 76.0938 19.7031 75.2969 19.7031C74.6302 19.7031 74.0703 19.888 73.6172 20.2578C73.1693 20.6224 72.9453 21.0755 72.9453 21.6172H71.4453C71.4453 21.013 71.6094 20.4714 71.9375 19.9922C72.2708 19.513 72.7344 19.1406 73.3281 18.875C73.9219 18.6042 74.5781 18.4688 75.2969 18.4688C76.5677 18.4688 77.5547 18.7552 78.2578 19.3281C78.9609 19.8958 79.3125 20.6875 79.3125 21.7031C79.3125 22.2292 79.151 22.7083 78.8281 23.1406C78.5052 23.5729 78.0547 23.9141 77.4766 24.1641C78.8151 24.612 79.4844 25.5 79.4844 26.8281C79.4844 27.849 79.1042 28.6589 78.3438 29.2578C77.5833 29.8568 76.5677 30.1562 75.2969 30.1562C74.5417 30.1562 73.8542 30.0234 73.2344 29.7578C72.6198 29.487 72.1406 29.1042 71.7969 28.6094C71.4531 28.1146 71.2812 27.526 71.2812 26.8438H72.7812C72.7812 27.4427 73.0182 27.9427 73.4922 28.3438C73.9661 28.7396 74.5677 28.9375 75.2969 28.9375C76.1146 28.9375 76.7656 28.7474 77.25 28.3672C77.7396 27.987 77.9844 27.4844 77.9844 26.8594C77.9844 25.526 77.1589 24.8464 75.5078 24.8203H74.1016V23.5859H75.5C76.2604 23.5703 76.8359 23.3984 77.2266 23.0703C77.6172 22.7422 77.8125 22.2786 77.8125 21.6797ZM87.7578 27.0312H82.9922L81.9219 30H80.375L84.7188 18.625H86.0312L90.3828 30H88.8438L87.7578 27.0312ZM83.4453 25.7969H87.3125L85.375 20.4766L83.4453 25.7969ZM98.7578 19.8594H95.1016V30H93.6094V19.8594H89.9609V18.625H98.7578V19.8594ZM102.023 23.2656H104.852C106.039 23.2812 106.966 23.5859 107.633 24.1797C108.299 24.7734 108.633 25.5807 108.633 26.6016C108.633 27.6276 108.297 28.4453 107.625 29.0547C106.953 29.6641 106.036 29.9792 104.875 30H100.523V18.625H102.023V23.2656ZM102.023 24.5V28.7734H104.766C105.51 28.7734 106.089 28.5755 106.5 28.1797C106.917 27.7839 107.125 27.2526 107.125 26.5859C107.125 25.9453 106.924 25.4401 106.523 25.0703C106.128 24.7005 105.562 24.5104 104.828 24.5H102.023ZM120.422 21.6797C120.422 21.0755 120.201 20.5964 119.758 20.2422C119.32 19.8828 118.703 19.7031 117.906 19.7031C117.24 19.7031 116.68 19.888 116.227 20.2578C115.779 20.6224 115.555 21.0755 115.555 21.6172H114.055C114.055 21.013 114.219 20.4714 114.547 19.9922C114.88 19.513 115.344 19.1406 115.938 18.875C116.531 18.6042 117.188 18.4688 117.906 18.4688C119.177 18.4688 120.164 18.7552 120.867 19.3281C121.57 19.8958 121.922 20.6875 121.922 21.7031C121.922 22.2292 121.76 22.7083 121.438 23.1406C121.115 23.5729 120.664 23.9141 120.086 24.1641C121.424 24.612 122.094 25.5 122.094 26.8281C122.094 27.849 121.714 28.6589 120.953 29.2578C120.193 29.8568 119.177 30.1562 117.906 30.1562C117.151 30.1562 116.464 30.0234 115.844 29.7578C115.229 29.487 114.75 29.1042 114.406 28.6094C114.062 28.1146 113.891 27.526 113.891 26.8438H115.391C115.391 27.4427 115.628 27.9427 116.102 28.3438C116.576 28.7396 117.177 28.9375 117.906 28.9375C118.724 28.9375 119.375 28.7474 119.859 28.3672C120.349 27.987 120.594 27.4844 120.594 26.8594C120.594 25.526 119.768 24.8464 118.117 24.8203H116.711V23.5859H118.109C118.87 23.5703 119.445 23.3984 119.836 23.0703C120.227 22.7422 120.422 22.2786 120.422 21.6797ZM124.086 30V18.625H127.805C129.039 18.625 129.966 18.8802 130.586 19.3906C131.211 19.901 131.523 20.6562 131.523 21.6562C131.523 22.1875 131.372 22.6589 131.07 23.0703C130.768 23.4766 130.357 23.7917 129.836 24.0156C130.451 24.1875 130.935 24.5156 131.289 25C131.648 25.4792 131.828 26.0521 131.828 26.7188C131.828 27.7396 131.497 28.5417 130.836 29.125C130.174 29.7083 129.24 30 128.031 30H124.086ZM125.586 24.6797V28.7734H128.062C128.76 28.7734 129.31 28.5938 129.711 28.2344C130.117 27.8698 130.32 27.3698 130.32 26.7344C130.32 25.3646 129.576 24.6797 128.086 24.6797H125.586ZM125.586 23.4766H127.852C128.508 23.4766 129.031 23.3125 129.422 22.9844C129.818 22.6562 130.016 22.2109 130.016 21.6484C130.016 21.0234 129.833 20.5703 129.469 20.2891C129.104 20.0026 128.549 19.8594 127.805 19.8594H125.586V23.4766ZM142.805 24.6797C142.805 25.7943 142.617 26.7682 142.242 27.6016C141.867 28.4297 141.336 29.0625 140.648 29.5C139.961 29.9375 139.159 30.1562 138.242 30.1562C137.346 30.1562 136.552 29.9375 135.859 29.5C135.167 29.0573 134.628 28.4297 134.242 27.6172C133.862 26.7995 133.667 25.8542 133.656 24.7812V23.9609C133.656 22.8672 133.846 21.901 134.227 21.0625C134.607 20.224 135.143 19.5833 135.836 19.1406C136.534 18.6927 137.331 18.4688 138.227 18.4688C139.138 18.4688 139.94 18.6901 140.633 19.1328C141.331 19.5703 141.867 20.2083 142.242 21.0469C142.617 21.8802 142.805 22.8516 142.805 23.9609V24.6797ZM141.312 23.9453C141.312 22.5964 141.042 21.5625 140.5 20.8438C139.958 20.1198 139.201 19.7578 138.227 19.7578C137.279 19.7578 136.531 20.1198 135.984 20.8438C135.443 21.5625 135.164 22.5625 135.148 23.8438V24.6797C135.148 25.987 135.422 27.0156 135.969 27.7656C136.521 28.5104 137.279 28.8828 138.242 28.8828C139.211 28.8828 139.961 28.5312 140.492 27.8281C141.023 27.1198 141.297 26.1068 141.312 24.7891V23.9453ZM153.797 30H152.289V24.7422H146.555V30H145.055V18.625H146.555V23.5156H152.289V18.625H153.797V30ZM165.211 24.6797C165.211 25.7943 165.023 26.7682 164.648 27.6016C164.273 28.4297 163.742 29.0625 163.055 29.5C162.367 29.9375 161.565 30.1562 160.648 30.1562C159.753 30.1562 158.958 29.9375 158.266 29.5C157.573 29.0573 157.034 28.4297 156.648 27.6172C156.268 26.7995 156.073 25.8542 156.062 24.7812V23.9609C156.062 22.8672 156.253 21.901 156.633 21.0625C157.013 20.224 157.549 19.5833 158.242 19.1406C158.94 18.6927 159.737 18.4688 160.633 18.4688C161.544 18.4688 162.346 18.6901 163.039 19.1328C163.737 19.5703 164.273 20.2083 164.648 21.0469C165.023 21.8802 165.211 22.8516 165.211 23.9609V24.6797ZM163.719 23.9453C163.719 22.5964 163.448 21.5625 162.906 20.8438C162.365 20.1198 161.607 19.7578 160.633 19.7578C159.685 19.7578 158.938 20.1198 158.391 20.8438C157.849 21.5625 157.57 22.5625 157.555 23.8438V24.6797C157.555 25.987 157.828 27.0156 158.375 27.7656C158.927 28.5104 159.685 28.8828 160.648 28.8828C161.617 28.8828 162.367 28.5312 162.898 27.8281C163.43 27.1198 163.703 26.1068 163.719 24.7891V23.9453ZM170.414 24.8906H169.031V30H167.531V18.625H169.031V23.6406H170.203L174.18 18.625H176.047L171.703 24.1406L176.367 30H174.531L170.414 24.8906Z" fill="#1F2332"/>
</svg>
