<svg width="60" height="60" viewBox="0 0 60 60" fill="none" xmlns="http://www.w3.org/2000/svg">
<g clip-path="url(#clip0)">
<path d="M57.7596 1.206C57.7356 0.807783 57.4459 0.47332 57.0547 0.395036C54.4243 -0.131972 51.757 -0.13162 49.1265 0.395739C48.7366 0.473906 48.4494 0.806845 48.4254 1.20389C48.4209 1.27959 48.4172 1.35542 48.4135 1.43124C48.4096 1.50882 48.4039 1.5864 48.3918 1.66316C48.1961 2.91382 47.1117 3.87373 45.8072 3.87373C44.8519 3.87373 44.0149 3.35915 43.5582 2.5926C43.3573 2.25556 43.2487 1.87164 43.2143 1.48081C43.2053 1.37839 43.1962 1.27608 43.1864 1.17377C43.1475 0.764305 42.8305 0.43699 42.4225 0.385075C38.3923 -0.128104 34.3056 -0.128221 30.2759 0.38484C29.8674 0.436873 29.5488 0.763953 29.5099 1.17377C29.4695 1.59894 29.4341 2.02469 29.4011 2.45092C29.285 2.4515 29.1679 2.45068 29.0539 2.45385C26.3892 2.52533 23.7708 3.26258 21.4792 4.58637C21.0828 4.81524 20.9005 5.30803 21.09 5.72453C21.2405 6.05559 21.5614 6.24239 21.8923 6.24239C22.042 6.24239 22.1939 6.20407 22.3328 6.12345C24.3778 4.9363 26.7183 4.27499 29.1018 4.21101C29.1624 4.20937 29.225 4.2103 29.2863 4.20948C29.1508 6.74714 29.1455 9.29545 29.2716 11.8338C25.6729 11.9341 22.1737 12.6749 18.8705 14.0362C18.1112 14.3494 17.4498 14.0315 17.0841 13.6296C16.7226 13.232 16.4713 12.5515 16.8506 11.8331C17.5842 10.4413 18.5361 9.1874 19.6804 8.10526C20.0282 7.77631 20.079 7.22211 19.763 6.86257C19.4331 6.48709 18.8608 6.4626 18.4999 6.80222C17.2032 8.02288 16.125 9.4396 15.2957 11.0129C14.6336 12.2671 14.8251 13.7584 15.7837 14.8123C16.4402 15.5341 17.3339 15.9187 18.2537 15.9187C18.684 15.9187 19.1202 15.8345 19.5403 15.6613C22.6632 14.3743 25.9734 13.677 29.3796 13.589C29.3797 13.5891 29.3797 13.5891 29.3797 13.5891C29.4179 14.1087 29.4608 14.6278 29.51 15.1459C29.5488 15.5542 29.8645 15.8824 30.2714 15.9342C30.6553 15.9831 31.0399 16.0258 31.4248 16.0655V23.5135C29.6939 22.9406 27.7817 23.1378 26.1722 24.1086L14.2718 31.2861C13.5887 30.4352 12.5408 29.8889 11.3672 29.8889H5.75564C3.69883 29.8889 2.03143 31.5563 2.03143 33.6132V56.2755C2.03143 58.3324 3.69883 59.9998 5.75564 59.9998H11.3673C12.4256 59.9998 13.3814 59.5554 14.06 58.8442C14.1095 58.8529 14.1601 58.8583 14.2119 58.8583H40.4082C40.8895 58.8583 41.3092 58.4875 41.3236 58.0065C41.3386 57.5087 40.9395 57.1005 40.445 57.1005H15.0907V56.3026C15.0907 56.2936 15.0914 56.2846 15.0914 56.2755V33.6132C15.0914 33.6057 15.091 33.5982 15.0908 33.5907V32.8449L27.0801 25.6139C28.4169 24.8076 30.0417 24.7416 31.4248 25.4085V28.0289H29.0404C28.5591 28.0289 28.1395 28.3997 28.125 28.8808C28.11 29.3785 28.5091 29.7868 29.0036 29.7868H43.5072C44.2426 29.7868 44.9349 30.0734 45.4557 30.5934C45.9759 31.1136 46.2625 31.8051 46.2625 32.5407C46.2625 34.0527 45.038 35.2843 43.5286 35.2959C43.1249 35.299 42.7568 35.5534 42.6574 35.9447C42.5089 36.5295 42.9468 37.0539 43.5072 37.0539H44.7491C46.2907 37.0539 47.5927 38.3154 47.5663 39.8569C47.5407 41.3547 46.3147 42.5654 44.8116 42.5654H43.544C43.0627 42.5654 42.643 42.9362 42.6286 43.4172C42.6136 43.9149 43.0126 44.3232 43.5072 44.3232C44.2435 44.3232 44.9355 44.6097 45.4563 45.1305C45.9726 45.646 46.2586 46.332 46.2625 47.0636C46.2704 48.5873 44.9601 49.8336 43.4363 49.8336H42.2398C41.7585 49.8336 41.3388 50.2043 41.3244 50.6854C41.3094 51.1831 41.7084 51.5914 42.203 51.5914C42.9383 51.5914 43.6307 51.8781 44.1521 52.3986C44.6719 52.9177 44.9582 53.6091 44.9582 54.3454C44.9582 55.3528 44.4122 56.2747 43.5304 56.761C43.1295 56.982 42.9215 57.4579 43.0933 57.8822C43.2351 58.2324 43.5665 58.4344 43.9101 58.4344C44.0495 58.4344 44.1911 58.4012 44.3228 58.331C45.799 57.5438 46.716 56.0167 46.716 54.3455C46.716 53.1465 46.2524 52.02 45.4098 51.1706C46.9502 50.4515 48.0202 48.8876 48.0202 47.0785C48.0202 45.8785 47.5564 44.7512 46.714 43.9023C48.2545 43.1831 49.3245 41.6187 49.3245 39.809C49.3245 37.9989 48.2534 36.4343 46.7115 35.7158C47.5201 34.8998 48.0202 33.7777 48.0202 32.5409C48.0202 31.3358 47.5509 30.2028 46.6982 29.35C45.8448 28.4981 44.7116 28.029 43.5072 28.029H41.2713V16.0657C41.6565 16.0261 42.0414 15.9833 42.4257 15.9343C42.8325 15.8825 43.1478 15.5543 43.1866 15.146C43.1963 15.0437 43.2054 14.9414 43.2144 14.8391C43.2488 14.4482 43.3574 14.0643 43.5583 13.7273C44.015 12.9607 44.8519 12.4461 45.8073 12.4461C47.112 12.4461 48.1962 13.406 48.3919 14.6567C48.4039 14.7333 48.4096 14.811 48.4136 14.8886C48.4175 14.9644 48.421 15.0403 48.4256 15.1159C48.4495 15.5128 48.7367 15.8457 49.1266 15.9239C50.4424 16.1878 51.7675 16.3198 53.0926 16.3198C54.4164 16.3198 55.7402 16.188 57.0548 15.9247C57.446 15.8463 57.7356 15.512 57.7597 15.1139C58.0382 10.4996 58.0382 5.82027 57.7596 1.206ZM11.3673 58.2421H5.75564C4.67139 58.2421 3.7893 57.36 3.7893 56.2758V33.6134C3.7893 32.5291 4.67139 31.647 5.75564 31.647H11.3673C12.4477 31.647 13.327 32.5232 13.3331 33.6021L13.333 56.2894C13.3256 57.3673 12.447 58.2421 11.3673 58.2421ZM31.1966 2.04497C34.6187 1.6621 38.0777 1.6621 41.5 2.04497C41.8454 6.10634 41.8454 10.2133 41.5 14.2747C38.0777 14.6575 34.6187 14.6575 31.1966 14.2747C30.8513 10.2133 30.8513 6.10634 31.1966 2.04497ZM39.5135 28.0291H33.1828V16.2146C34.2366 16.2841 35.2924 16.3196 36.3483 16.3196C37.4041 16.3196 38.4598 16.2841 39.5135 16.2146V28.0291ZM45.8073 10.6883C44.9378 10.6883 44.1276 10.9442 43.4458 11.3833C43.5392 9.23651 43.5392 7.08336 43.4458 4.93654C44.1275 5.37565 44.9378 5.6316 45.8073 5.6316C46.7175 5.6316 47.5635 5.35186 48.2643 4.87431C48.2023 7.06261 48.2023 9.25737 48.2643 11.4457C47.5634 10.9679 46.7175 10.6883 45.8073 10.6883ZM56.0442 14.3219C54.0825 14.6417 52.1022 14.6417 50.1408 14.3219C49.9188 10.2293 49.9188 6.0904 50.1408 1.99786C52.1021 1.67804 54.0824 1.67804 56.0442 1.99786C56.2661 6.0904 56.2661 10.2293 56.0442 14.3219Z" fill="#0D89B5"/>
</g>
<defs>
<clipPath id="clip0">
<rect width="60" height="60" fill="white"/>
</clipPath>
</defs>
</svg>
