<svg width="35" height="23" viewBox="0 0 35 23" fill="none" xmlns="http://www.w3.org/2000/svg">
<path d="M33.205 0H1.79491C0.807665 0 0 0.787471 0 1.74997V20.9999C0 21.9624 0.807665 22.75 1.79491 22.75H33.2051C34.1922 22.75 35 21.9625 35 20.9999V1.74997C34.9999 0.787471 34.1923 0 33.205 0ZM32.5315 1.31241L18.5325 11.55C18.2808 11.7368 17.8944 11.8536 17.4999 11.8519C17.1055 11.8536 16.7192 11.7368 16.4674 11.55L2.46838 1.31241H32.5315ZM25.0537 12.2255L32.6819 21.413C32.6895 21.4222 32.6989 21.4292 32.707 21.4375H2.29291C2.30097 21.4288 2.31041 21.4222 2.31806 21.413L9.94627 12.2255C10.18 11.9438 10.1357 11.5307 9.84619 11.3023C9.55724 11.0745 9.13362 11.1176 8.89983 11.3994L1.34613 20.4972V2.13274L15.6601 12.5999C16.1982 12.9906 16.8528 13.1625 17.4998 13.1643C18.146 13.1629 18.8011 12.991 19.3395 12.5999L33.6535 2.13274V20.4971L26.1 11.3994C25.8663 11.1177 25.4422 11.0744 25.1537 11.3023C24.8642 11.5302 24.8198 11.9438 25.0537 12.2255Z" fill="#1F2332"/>
</svg>
