<svg width="25" height="17" viewBox="0 0 25 17" fill="none" xmlns="http://www.w3.org/2000/svg">
<path d="M23.7179 0H1.28208C0.576903 0 0 0.562479 0 1.24998V14.9999C0 15.6874 0.576903 16.25 1.28208 16.25H23.7179C24.423 16.25 25 15.6875 25 14.9999V1.24998C25 0.562479 24.423 0 23.7179 0ZM23.2368 0.937434L13.2375 8.25C13.0577 8.3834 12.7817 8.46685 12.4999 8.46561C12.2182 8.46685 11.9423 8.3834 11.7624 8.25L1.76313 0.937434H23.2368ZM17.8955 8.7325L23.3442 15.295C23.3497 15.3016 23.3564 15.3066 23.3622 15.3125H1.63779C1.64355 15.3063 1.65029 15.3016 1.65576 15.295L7.10448 8.7325C7.27142 8.53126 7.23978 8.23624 7.03299 8.07309C6.8266 7.91032 6.52401 7.94117 6.35702 8.14246L0.961522 14.6409V1.52338L11.1858 8.99991C11.5701 9.27898 12.0377 9.40181 12.4999 9.40305C12.9614 9.4021 13.4294 9.27927 13.8139 8.99991L24.0382 1.52338V14.6408L18.6429 8.14246C18.4759 7.94122 18.173 7.91028 17.9669 8.07309C17.7602 8.23586 17.7284 8.53126 17.8955 8.7325Z" fill="white"/>
</svg>
