<svg width="25" height="35" viewBox="0 0 25 35" fill="none" xmlns="http://www.w3.org/2000/svg">
<path d="M12.5 0C5.60735 0 0 5.79987 0 12.9292C0 15.2762 1.01765 17.8004 1.06029 17.9069C1.38897 18.7138 2.0375 19.9672 2.50515 20.7019L11.0757 34.1337C11.4265 34.6844 11.9456 35 12.5 35C13.0544 35 13.5735 34.6844 13.9243 34.1345L22.4956 20.7019C22.964 19.9672 23.6118 18.7138 23.9404 17.9069C23.9831 17.8012 25 15.2769 25 12.9292C25 5.79987 19.3926 0 12.5 0ZM22.5846 17.3167C22.2912 18.04 21.6875 19.2059 21.2676 19.8645L12.6963 33.2971C12.5272 33.5626 12.4735 33.5626 12.3044 33.2971L3.73309 19.8645C3.31324 19.2059 2.70956 18.0392 2.41618 17.3159C2.40368 17.2848 1.47059 14.9613 1.47059 12.9292C1.47059 6.63874 6.41838 1.52108 12.5 1.52108C18.5816 1.52108 23.5294 6.63874 23.5294 12.9292C23.5294 14.9644 22.5941 17.2939 22.5846 17.3167Z" fill="#1F2332"/>
<path d="M12.5 6.08496C8.85071 6.08496 5.88232 9.15602 5.88232 12.9298C5.88232 16.7036 8.85071 19.7747 12.5 19.7747C16.1492 19.7747 19.1176 16.7036 19.1176 12.9298C19.1176 9.15602 16.1492 6.08496 12.5 6.08496ZM12.5 18.2536C9.66247 18.2536 7.35291 15.8655 7.35291 12.9298C7.35291 9.99413 9.66247 7.60604 12.5 7.60604C15.3375 7.60604 17.647 9.99413 17.647 12.9298C17.647 15.8655 15.3375 18.2536 12.5 18.2536Z" fill="#1F2332"/>
</svg>
