<svg width="18" height="25" viewBox="0 0 18 25" fill="none" xmlns="http://www.w3.org/2000/svg">
<path d="M8.92857 0C4.00525 0 0 4.14276 0 9.23512C0 10.9116 0.726891 12.7146 0.757353 12.7906C0.992122 13.367 1.45536 14.2623 1.78939 14.787L7.91124 24.3812C8.16176 24.7746 8.53256 25 8.92857 25C9.32458 25 9.69538 24.7746 9.9459 24.3818L16.0683 14.787C16.4028 14.2623 16.8655 13.367 17.1003 12.7906C17.1308 12.7151 17.8571 10.9121 17.8571 9.23512C17.8571 4.14276 13.8519 0 8.92857 0ZM16.1318 12.3691C15.9223 12.8857 15.4911 13.7185 15.1912 14.1889L9.0688 23.7837C8.948 23.9733 8.90966 23.9733 8.78887 23.7837L2.66649 14.1889C2.3666 13.7185 1.9354 12.8852 1.72584 12.3685C1.71691 12.3463 1.05042 10.6867 1.05042 9.23512C1.05042 4.74196 4.58456 1.08648 8.92857 1.08648C13.2726 1.08648 16.8067 4.74196 16.8067 9.23512C16.8067 10.6888 16.1387 12.3528 16.1318 12.3691Z" fill="white"/>
<path d="M8.92855 4.34619C6.32193 4.34619 4.20166 6.5398 4.20166 9.23537C4.20166 11.9309 6.32193 14.1245 8.92855 14.1245C11.5352 14.1245 13.6554 11.9309 13.6554 9.23537C13.6554 6.5398 11.5352 4.34619 8.92855 4.34619ZM8.92855 13.0381C6.90177 13.0381 5.25208 11.3323 5.25208 9.23537C5.25208 7.13845 6.90177 5.43268 8.92855 5.43268C10.9553 5.43268 12.605 7.13845 12.605 9.23537C12.605 11.3323 10.9553 13.0381 8.92855 13.0381Z" fill="white"/>
</svg>
