<svg width="48" height="60" viewBox="0 0 48 60" fill="none" xmlns="http://www.w3.org/2000/svg">
<path d="M24 5.54224C19.0826 5.54224 14.4759 7.47407 11.0271 10.9836L10.9754 11.0365C10.637 11.3829 10.6433 11.938 10.9896 12.2765C11.3359 12.615 11.8911 12.6086 12.2297 12.2624L12.2796 12.2113C15.3945 9.04157 19.5568 7.29606 24 7.29606C33.0602 7.29606 40.4313 14.667 40.4313 23.7274C40.4313 32.7877 33.0602 40.1587 24 40.1587C14.9398 40.1587 7.56867 32.7876 7.56867 23.7274C7.56867 20.7675 8.36414 17.8663 9.86906 15.3374C10.1167 14.9211 9.98015 14.383 9.5639 14.1354C9.14754 13.8877 8.60953 14.0244 8.36191 14.4405C6.69562 17.2406 5.81484 20.452 5.81484 23.7275C5.81484 33.7548 13.9726 41.9127 23.9999 41.9127C34.0271 41.9127 42.1849 33.7548 42.1849 23.7275C42.1849 13.7002 34.0273 5.54224 24 5.54224Z" fill="#0D89B5"/>
<path d="M46.211 20.078C45.7352 19.3696 45.2859 18.7004 45.1171 18.0689C44.937 17.395 44.9907 16.5647 45.0478 15.6857C45.1329 14.3745 45.2209 13.0185 44.5511 11.8609C43.8709 10.6853 42.6422 10.0819 41.4539 9.49828C40.6726 9.11461 39.9346 8.75215 39.4549 8.2725C38.9753 7.79273 38.6128 7.0548 38.229 6.2734C37.6455 5.08523 37.0421 3.85652 35.8664 3.17637C34.7088 2.50664 33.353 2.59465 32.0416 2.67961C31.1626 2.73668 30.3325 2.79059 29.6583 2.61035C29.0268 2.44148 28.3576 1.99219 27.6492 1.51641C26.5911 0.805664 25.3915 0 24 0C22.6085 0 21.4089 0.805664 20.3504 1.51652C19.642 1.9923 18.973 2.4416 18.3415 2.61035C17.6675 2.79059 16.8373 2.73668 15.9582 2.67961C14.6469 2.59465 13.2912 2.50664 12.1335 3.17637C10.9579 3.85652 10.3545 5.08523 9.77086 6.2734C9.38719 7.0548 9.02472 7.79285 8.54496 8.2725C8.06531 8.75215 7.32738 9.11461 6.54598 9.49828C5.35769 10.0818 4.1291 10.6853 3.44883 11.8609C2.77898 13.0185 2.86699 14.3745 2.95207 15.6858C3.00914 16.5647 3.06293 17.395 2.88281 18.0689C2.71395 18.7004 2.26465 19.3696 1.78887 20.078C1.07812 21.1364 0.272461 22.3359 0.272461 23.7274C0.272461 25.1189 1.07801 26.3186 1.78887 27.377C2.26453 28.0854 2.71395 28.7545 2.8827 29.3861C3.06281 30.06 3.00902 30.8903 2.95195 31.7693C2.86687 33.0805 2.77887 34.4364 3.44871 35.5941C4.12887 36.7697 5.35758 37.3732 6.54586 37.9567C7.32715 38.3404 8.06519 38.7028 8.54484 39.1825C8.98957 39.6272 9.33363 40.2947 9.68719 41.0121L3.31793 52.7297C3.04465 53.2324 3.0525 53.8283 3.33902 54.3236C3.62555 54.8189 4.13801 55.1228 4.71 55.1366L9.59449 55.2548L12.3502 59.2895C12.6568 59.7386 13.1542 60 13.6932 60C13.7214 60 13.7497 59.9993 13.7781 59.9979C14.3495 59.9689 14.8537 59.6515 15.127 59.1488L21.8149 46.8451C22.488 47.1974 23.2132 47.455 23.9999 47.455C24.7864 47.455 25.5117 47.1974 26.1848 46.8451L32.8727 59.1489C33.146 59.6516 33.6503 59.9691 34.2217 59.998C34.2502 59.9994 34.2784 60.0001 34.3065 60.0001C34.8456 60.0001 35.3429 59.7387 35.6496 59.2896L38.4053 55.255L43.2896 55.1367C43.8616 55.1229 44.3742 54.8189 44.6606 54.3237C44.9471 53.8283 44.955 53.2325 44.6817 52.7298L42.3526 48.4448C42.1213 48.0192 41.5889 47.8616 41.1634 48.0932C40.7379 48.3245 40.5805 48.8569 40.8117 49.2824L43.0436 53.3883L38.2989 53.5031C37.776 53.5158 37.2878 53.7812 36.9929 54.213L34.3161 58.1321L27.6777 45.9193C28.3755 45.4507 29.0353 45.011 29.6583 44.8445C30.3322 44.6644 31.1625 44.7182 32.0415 44.7752C33.353 44.8603 34.7087 44.9483 35.8663 44.2785C36.4791 43.924 36.9356 43.4198 37.3157 42.8507L38.8823 45.733C39.1136 46.1585 39.6457 46.3159 40.0716 46.0847C40.4971 45.8534 40.6544 45.321 40.4232 44.8955L38.3123 41.012C38.6659 40.2946 39.01 39.6272 39.4547 39.1825C39.9343 38.7028 40.6723 38.3404 41.4537 37.9567C42.6419 37.3732 43.8705 36.7697 44.5508 35.5941C45.2207 34.4365 45.1327 33.0805 45.0476 31.7692C44.9905 30.8903 44.9367 30.06 45.1168 29.3859C45.2857 28.7544 45.735 28.0854 46.2107 27.377C46.9214 26.3186 47.7271 25.1189 47.7271 23.7274C47.7274 22.3359 46.9218 21.1363 46.211 20.078ZM13.6836 58.1321L11.007 54.2132C10.712 53.7813 10.2238 53.5159 9.7009 53.5032L4.95633 53.3884L10.6841 42.8509C11.0641 43.42 11.5207 43.9241 12.1335 44.2786C13.2912 44.9483 14.6473 44.8604 15.9582 44.7754C16.8373 44.7183 17.6675 44.6645 18.3415 44.8446C18.9646 45.0111 19.6243 45.4509 20.3221 45.9195L13.6836 58.1321ZM44.755 26.3992C44.2201 27.1957 43.667 28.0193 43.4228 28.9331C43.1681 29.8856 43.234 30.9009 43.2977 31.8827C43.369 32.9813 43.4362 34.0188 43.033 34.7157C42.6196 35.4302 41.6778 35.8928 40.6808 36.3825C39.8054 36.8123 38.9003 37.2568 38.2148 37.9424C37.5293 38.6278 37.0848 39.5331 36.6548 40.4085C36.1652 41.4055 35.7027 42.3471 34.9883 42.7605C34.2913 43.1638 33.2539 43.0964 32.1553 43.0253C31.1734 42.9615 30.1582 42.8958 29.2057 43.1503C28.292 43.3946 27.4684 43.9477 26.6719 44.4826C25.7387 45.1093 24.8573 45.7013 24 45.7013C23.1428 45.7013 22.2614 45.1093 21.3282 44.4826C20.5317 43.9478 19.7082 43.3946 18.7943 43.1503C18.2714 43.0105 17.7298 42.9674 17.185 42.9674C16.7373 42.9674 16.2875 42.9966 15.8447 43.0254C14.7461 43.0965 13.7086 43.164 13.0117 42.7607C12.2972 42.3472 11.8346 41.4055 11.345 40.4085C10.9152 39.5331 10.4706 38.6279 9.78504 37.9424C9.09961 37.257 8.19445 36.8123 7.31906 36.3825C6.32203 35.8929 5.38031 35.4304 4.96687 34.7157C4.56363 34.0188 4.6309 32.9812 4.70215 31.8829C4.7659 30.9011 4.83176 29.8857 4.57711 28.9332C4.33289 28.0194 3.77977 27.1957 3.2448 26.3993C2.6182 25.4661 2.02629 24.5848 2.02629 23.7275C2.02629 22.8703 2.6182 21.9889 3.2448 21.0558C3.77977 20.2593 4.33277 19.4357 4.57711 18.5218C4.83176 17.5693 4.7659 16.554 4.70215 15.5722C4.6309 14.4737 4.56363 13.4361 4.96687 12.7392C5.38031 12.0247 6.32203 11.5622 7.31906 11.0725C8.19445 10.6426 9.09961 10.198 9.78504 9.51258C10.4705 8.82715 10.9151 7.92188 11.345 7.04648C11.8346 6.04957 12.2972 5.10785 13.0117 4.69441C13.7086 4.29129 14.7461 4.35855 15.8447 4.42969C16.8265 4.49344 17.8417 4.5593 18.7943 4.30465C19.708 4.06031 20.5316 3.5073 21.3281 2.97234C22.2613 2.34562 23.1427 1.75371 24 1.75371C24.8572 1.75371 25.7386 2.34563 26.6718 2.97223C27.4683 3.50719 28.2919 4.06031 29.2057 4.30453C30.1582 4.55918 31.1736 4.49332 32.1554 4.42957C33.2539 4.35844 34.2915 4.29105 34.9883 4.6943C35.7028 5.10773 36.1654 6.04945 36.655 7.04637C37.0848 7.92176 37.5294 8.82691 38.215 9.51246C38.9004 10.1979 39.8057 10.6425 40.6809 11.0723C41.678 11.562 42.6196 12.0245 43.033 12.739C43.4362 13.4359 43.369 14.4735 43.2977 15.5719C43.234 16.5537 43.1681 17.569 43.4228 18.5215C43.667 19.4353 44.2201 20.259 44.7551 21.0554C45.3817 21.9886 45.9736 22.87 45.9736 23.7272C45.9736 24.5846 45.3817 25.466 44.755 26.3992Z" fill="#0D89B5"/>
<path d="M36.0421 22.9058C36.6346 22.3282 36.8437 21.4805 36.588 20.6936C36.3323 19.9067 35.6648 19.3439 34.8461 19.2249L28.899 18.3608C28.7673 18.3417 28.6535 18.2589 28.5947 18.1396L25.9351 12.7508C25.5689 12.0087 24.8273 11.5479 24 11.5479C23.1727 11.5479 22.4311 12.0087 22.0649 12.7508L19.4053 18.1396C19.3465 18.2589 19.2327 18.3417 19.101 18.3608L13.1541 19.2249C12.3353 19.3439 11.6677 19.9066 11.412 20.6936C11.1563 21.4805 11.3654 22.3282 11.9581 22.9058L16.2613 27.1004C16.3567 27.1933 16.4 27.327 16.3775 27.4582L15.3616 33.3812C15.2217 34.1968 15.5508 35.0055 16.2202 35.4918C16.5984 35.7666 17.0409 35.9062 17.4865 35.9062C17.8294 35.9062 18.1741 35.8235 18.4928 35.656L23.8118 32.8596C23.9297 32.7977 24.0703 32.7977 24.188 32.8596L29.5071 35.656C30.2394 36.041 31.1102 35.9781 31.7797 35.4918C32.4492 35.0055 32.7782 34.1967 32.6382 33.3812L31.6223 27.4582C31.5998 27.327 31.6433 27.1933 31.7385 27.1005L36.0421 22.9058ZM29.8939 27.7546L30.9098 33.6777C30.9482 33.9011 30.8101 34.0285 30.7491 34.0729C30.6879 34.1173 30.5242 34.2091 30.3234 34.1036L25.0042 31.3072C24.3754 30.9766 23.6247 30.9767 22.9958 31.3072L17.6767 34.1038C17.4762 34.2092 17.3122 34.1173 17.2511 34.0729C17.19 34.0285 17.052 33.9011 17.0903 33.6777L18.1062 27.7548C18.2263 27.0547 17.9944 26.3407 17.4856 25.8446L13.1823 21.65C13.0199 21.4917 13.0567 21.3075 13.08 21.2357C13.1033 21.1639 13.1818 20.9933 13.4063 20.9607L19.3533 20.0966C20.0563 19.9944 20.6637 19.5532 20.9781 18.9161L23.6377 13.5273C23.738 13.3239 23.9245 13.302 24.0001 13.302C24.0757 13.302 24.2622 13.3239 24.3626 13.5273L27.0222 18.9161C27.3366 19.5532 27.9439 19.9945 28.647 20.0966L34.594 20.9607C34.8184 20.9933 34.8968 21.1639 34.9202 21.2357C34.9436 21.3076 34.9803 21.4918 34.818 21.65L30.5146 25.8447C30.0057 26.3407 29.7738 27.0547 29.8939 27.7546Z" fill="#0D89B5"/>
</svg>
