<svg width="30" height="30" viewBox="0 0 30 30" fill="none" xmlns="http://www.w3.org/2000/svg">
<g clip-path="url(#clip0)">
<path d="M2.10083 26.8702L2.10083 3.12991C2.10083 2.54804 1.62921 2.07642 1.04734 2.07642C0.46547 2.07642 -2.44845e-05 2.54804 -2.45353e-05 3.12991L-2.66108e-05 26.8702C-2.66617e-05 27.4521 0.471593 27.9237 1.04734 27.9237C1.62921 27.9176 2.10083 27.4521 2.10083 26.8702Z" fill="#EF7922"/>
<path d="M14.5774 7.7114C14.3753 7.50928 14.1058 7.40515 13.8363 7.40515C13.5668 7.40515 13.2973 7.50928 13.0951 7.7114L6.54757 14.259C6.1372 14.6693 6.1372 15.337 6.54757 15.7473L13.089 22.2888C13.4994 22.6991 14.167 22.6991 14.5774 22.2888C14.9878 21.8784 14.9878 21.2108 14.5774 20.8004L9.82442 16.0475L28.9465 16.0475C29.5284 16.0475 30 15.5758 30 15.0001C30 14.4182 29.5284 13.9466 28.9465 13.9466L9.81829 13.9466L14.5713 9.19364C14.9878 8.78326 14.9878 8.12177 14.5774 7.7114Z" fill="#EF7922"/>
</g>
<defs>
<clipPath id="clip0">
<rect width="30" height="30" fill="white" transform="translate(30 30) rotate(-180)"/>
</clipPath>
</defs>
</svg>
