<svg width="30" height="30" viewBox="0 0 30 30" fill="none" xmlns="http://www.w3.org/2000/svg">
<path d="M27.8991 3.12979V26.8701C27.8991 27.452 28.3708 27.9236 28.9526 27.9236C29.5345 27.9236 30 27.452 30 26.8701V3.12979C30 2.54791 29.5284 2.07629 28.9526 2.07629C28.3708 2.08242 27.8991 2.54791 27.8991 3.12979Z" fill="#EF7922"/>
<path d="M15.4226 22.2886C15.6247 22.4907 15.8942 22.5948 16.1637 22.5948C16.4332 22.5948 16.7027 22.4907 16.9049 22.2886L23.4524 15.741C23.8628 15.3307 23.8628 14.663 23.4524 14.2527L16.911 7.71122C16.5006 7.30085 15.833 7.30085 15.4226 7.71122C15.0122 8.12159 15.0122 8.78921 15.4226 9.19958L20.1756 13.9525H1.05349C0.471621 13.9525 0 14.4242 0 14.9999C0 15.5818 0.471621 16.0534 1.05349 16.0534H20.1817L15.4287 20.8064C15.0122 21.2167 15.0122 21.8782 15.4226 22.2886Z" fill="#EF7922"/>
</svg>
