<svg width="36" height="35" viewBox="0 0 36 35" fill="none" xmlns="http://www.w3.org/2000/svg">
<path d="M34.084 27.0013L26.9994 22.2767C26.1003 21.6819 24.8952 21.8776 24.2305 22.7264L22.1668 25.3797C21.9016 25.7294 21.4195 25.8309 21.0358 25.6178L20.6433 25.4013C19.3419 24.692 17.7228 23.809 14.4604 20.5455C11.1981 17.282 10.3132 15.6616 9.60394 14.3626L9.38869 13.9701C9.17262 13.5865 9.27214 13.1023 9.62198 12.835L12.2736 10.7719C13.122 10.1072 13.318 8.90237 12.7239 8.00304L7.99925 0.91841C7.39042 0.0026015 6.16894 -0.272319 5.2264 0.294268L2.26387 2.07387C1.33302 2.62111 0.650094 3.50739 0.35829 4.54699C-0.708512 8.43401 0.0940328 15.1424 9.97612 25.0257C17.8371 32.886 23.6893 34.9999 27.7116 34.9999C28.6373 35.0039 29.5594 34.8834 30.4531 34.6418C31.4929 34.3503 32.3793 33.6673 32.9262 32.7362L34.7076 29.7755C35.275 28.8327 35.0002 27.6105 34.084 27.0013ZM33.7025 29.177L31.9252 32.1395C31.5325 32.8115 30.895 33.3057 30.1462 33.5184C26.5578 34.5036 20.2886 33.6876 10.8014 24.2004C1.31422 14.7132 0.498279 8.44454 1.48347 4.85561C1.69646 4.1059 2.19121 3.46754 2.86408 3.07423L5.82662 1.29695C6.23558 1.05088 6.76574 1.17016 7.02992 1.56757L9.59642 5.42076L11.7505 8.65158C12.0085 9.04168 11.9237 9.56452 11.5557 9.85318L8.90351 11.9162C8.09639 12.5334 7.8659 13.6501 8.36283 14.5364L8.57343 14.919C9.3189 16.2863 10.2457 17.9871 13.6294 21.3702C17.013 24.7533 18.7134 25.6802 20.08 26.4256L20.4631 26.6367C21.3494 27.1336 22.4661 26.9032 23.0833 26.096L25.1464 23.4438C25.4351 23.076 25.9577 22.9913 26.348 23.249L33.432 27.9736C33.8297 28.2376 33.9489 28.7681 33.7025 29.177Z" fill="#1F2332"/>
<path d="M19.8337 5.83499C25.3076 5.84107 29.7435 10.277 29.7496 15.7509C29.7496 16.0731 30.0107 16.3342 30.3329 16.3342C30.655 16.3342 30.9161 16.0731 30.9161 15.7509C30.9094 9.63301 25.9516 4.67516 19.8337 4.66846C19.5115 4.66846 19.2504 4.92957 19.2504 5.25172C19.2504 5.57388 19.5115 5.83499 19.8337 5.83499Z" fill="#1F2332"/>
<path d="M19.8337 9.33499C23.3755 9.33916 26.2457 12.2093 26.2499 15.7512C26.2499 16.0733 26.5111 16.3344 26.8332 16.3344C27.1553 16.3344 27.4164 16.0733 27.4164 15.7512C27.4116 11.5653 24.0195 8.17324 19.8337 8.16846C19.5115 8.16846 19.2504 8.42957 19.2504 8.75172C19.2504 9.07388 19.5115 9.33499 19.8337 9.33499Z" fill="#1F2332"/>
<path d="M19.8337 12.8345C21.4436 12.8364 22.7482 14.141 22.7502 15.751C22.7502 16.0731 23.0113 16.3342 23.3334 16.3342C23.6555 16.3342 23.9167 16.0731 23.9167 15.751C23.9141 13.4971 22.0876 11.6705 19.8337 11.668C19.5115 11.668 19.2504 11.9291 19.2504 12.2512C19.2504 12.5734 19.5115 12.8345 19.8337 12.8345Z" fill="#1F2332"/>
</svg>
