<svg width="60" height="60" viewBox="0 0 60 60" fill="none" xmlns="http://www.w3.org/2000/svg">
<path d="M57.3633 54.7264H53.2307C53.2041 53.0847 52.0658 51.7086 50.5369 51.3205V37.0912C50.5369 37.0579 50.5346 37.0252 50.5311 36.993L55.1707 32.3534C55.5139 32.0101 55.5139 31.4537 55.1707 31.1104C54.8276 30.7674 54.2711 30.7672 53.9278 31.1104L39.2575 45.7807C39.0914 45.9466 38.8707 46.038 38.636 46.038C38.4013 46.038 38.1806 45.9466 38.0146 45.7806C37.8485 45.6146 37.7571 45.3938 37.7571 45.1591C37.7571 44.9244 37.8485 44.7036 38.0146 44.5377L56.7418 25.8104C57.0846 25.4677 57.6422 25.4679 57.9847 25.8103C58.3274 26.1531 58.3274 26.7108 57.9847 27.0533L56.5786 28.4594C56.2354 28.8028 56.2354 29.3592 56.5786 29.7024C56.9218 30.0456 57.4784 30.0456 57.8215 29.7024L59.2277 28.2962C60.2557 27.2682 60.2557 25.5954 59.2277 24.5673C58.1998 23.5394 56.5269 23.5394 55.4989 24.5673L36.7716 43.2947C36.2735 43.7927 35.9993 44.4548 35.9993 45.1591C35.9993 45.8634 36.2736 46.5255 36.7716 47.0235C37.2696 47.5215 37.9317 47.7958 38.636 47.7958C39.3403 47.7958 40.0024 47.5215 40.5005 47.0236L48.7792 38.745V51.3204C47.2502 51.7085 46.112 53.0846 46.0854 54.7263H35.2311C35.2045 53.0846 34.0663 51.7084 32.5373 51.3204V37.0912C32.5373 37.0581 32.5351 37.0254 32.5316 36.9931L41.2283 28.2965V28.2964C42.2563 27.2684 42.2563 25.5956 41.2283 24.5675C40.2002 23.5397 38.5275 23.5397 37.4994 24.5675L18.7719 43.2947C18.2739 43.7927 17.9996 44.4548 17.9996 45.1591C17.9996 45.8634 18.274 46.5255 18.7719 47.0235C19.27 47.5215 19.9321 47.7958 20.6364 47.7958C21.3407 47.7958 22.0029 47.5215 22.5008 47.0236L30.7794 38.745V51.3204C29.2505 51.7085 28.1122 53.0846 28.0856 54.7263H17.2315C17.2049 53.0846 16.0666 51.7084 14.5377 51.3204V37.0912C14.5377 37.0579 14.5355 37.0252 14.5318 36.993L23.2286 28.2963C24.2565 27.2683 24.2565 25.5955 23.2286 24.5674C22.2006 23.5395 20.5277 23.5395 19.4998 24.5674L5.49809 38.5688C5.15484 38.9122 5.15484 39.4686 5.49809 39.8118C5.84133 40.155 6.39785 40.155 6.74098 39.8118L20.7425 25.8104C21.0853 25.4677 21.6429 25.4679 21.9854 25.8103C22.3281 26.1531 22.3281 26.7108 21.9854 27.0533L3.25816 45.7807C3.09211 45.9466 2.87145 46.038 2.63672 46.038C2.40199 46.038 2.18133 45.9466 2.01527 45.7806C1.84922 45.6146 1.75781 45.3938 1.75781 45.1591C1.75781 44.9244 1.84922 44.7036 2.01527 44.5377L4.09008 42.4629C4.43332 42.1195 4.43332 41.5631 4.09008 41.2199C3.74684 40.8767 3.19031 40.8767 2.84719 41.2199L0.772266 43.2947C0.274219 43.7927 0 44.4548 0 45.1591C0 45.8634 0.274336 46.5255 0.772266 47.0235C1.27031 47.5215 1.93242 47.7958 2.63672 47.7958C3.34102 47.7958 4.00313 47.5215 4.50117 47.0236L12.7799 38.7449V51.3204C11.2509 51.7085 10.1127 53.0846 10.0861 54.7263H2.63672C1.18277 54.7264 0 55.9093 0 57.3631C0 58.817 1.18277 59.9999 2.63672 59.9999H57.3633C58.8172 59.9999 60 58.817 60 57.3631C60 55.9093 58.8172 54.7264 57.3633 54.7264ZM21.2578 45.7807C21.0918 45.9466 20.8711 46.038 20.6364 46.038C20.4016 46.038 20.181 45.9466 20.0149 45.7806C19.8489 45.6146 19.7575 45.3938 19.7575 45.1591C19.7575 44.9244 19.8489 44.7036 20.0149 44.5377L38.7422 25.8104C38.9135 25.639 39.1386 25.5534 39.3638 25.5534C39.5887 25.5534 39.8139 25.6391 39.9852 25.8103C40.3279 26.1531 40.3279 26.7108 39.9852 27.0533L21.2578 45.7807ZM49.658 52.9686C50.6399 52.9686 51.4424 53.7519 51.4734 54.7264H47.8425C47.8736 53.7519 48.6761 52.9686 49.658 52.9686ZM31.6583 52.9686C32.6402 52.9686 33.4427 53.7519 33.4738 54.7264H29.8429C29.8739 53.7519 30.6763 52.9686 31.6583 52.9686ZM13.6587 52.9686C14.6406 52.9686 15.4431 53.7519 15.4741 54.7264H11.8432C11.8743 53.7519 12.6768 52.9686 13.6587 52.9686ZM57.3633 58.242H2.63672C2.15203 58.242 1.75781 57.8478 1.75781 57.3631C1.75781 56.8785 2.15203 56.4842 2.63672 56.4842H57.3633C57.848 56.4842 58.2422 56.8785 58.2422 57.3631C58.2422 57.8478 57.848 58.242 57.3633 58.242Z" fill="#0D89B5"/>
<path d="M12.5977 18.8672C16.0547 18.8672 18.8672 16.0547 18.8672 12.5977C18.8672 9.14062 16.0547 6.32812 12.5977 6.32812C11.6802 6.32812 10.7957 6.52207 9.96855 6.90469C9.52793 7.10836 9.33609 7.63066 9.53977 8.07129C9.74344 8.51191 10.2661 8.70375 10.7065 8.49996C11.3006 8.22516 11.9368 8.08594 12.5977 8.08594C15.0854 8.08594 17.1094 10.1099 17.1094 12.5977C17.1094 15.0854 15.0854 17.1094 12.5977 17.1094C10.1099 17.1094 8.08594 15.0854 8.08594 12.5977C8.08594 11.921 8.23184 11.2707 8.51941 10.6649C8.72766 10.2265 8.54098 9.70219 8.10246 9.49395C7.66406 9.28594 7.13977 9.4725 6.93152 9.91102C6.53109 10.7542 6.32812 11.658 6.32812 12.5977C6.32812 16.0547 9.14062 18.8672 12.5977 18.8672Z" fill="#0D89B5"/>
<path d="M12.5977 3.16406C13.083 3.16406 13.4766 2.77066 13.4766 2.28516V0.878906C13.4766 0.393398 13.083 0 12.5977 0C12.1123 0 11.7188 0.393398 11.7188 0.878906V2.28516C11.7188 2.77066 12.1123 3.16406 12.5977 3.16406Z" fill="#0D89B5"/>
<path d="M11.7188 22.9102V24.3164C11.7188 24.8019 12.1123 25.1953 12.5977 25.1953C13.083 25.1953 13.4766 24.8019 13.4766 24.3164V22.9102C13.4766 22.4246 13.083 22.0312 12.5977 22.0312C12.1123 22.0312 11.7188 22.4246 11.7188 22.9102Z" fill="#0D89B5"/>
<path d="M19.8898 6.18419C20.1147 6.18419 20.3397 6.09841 20.5112 5.92673L21.5056 4.93239C21.8488 4.58915 21.8488 4.03263 21.5056 3.6895C21.1623 3.34638 20.6058 3.34626 20.2627 3.68962L19.2683 4.68396C18.9251 5.0272 18.9251 5.58372 19.2683 5.92685C19.4399 6.09841 19.6648 6.18419 19.8898 6.18419Z" fill="#0D89B5"/>
<path d="M4.31137 21.7628C4.53626 21.7628 4.76126 21.677 4.93282 21.5053L5.92716 20.511C6.2704 20.1678 6.2704 19.6112 5.92716 19.2681C5.58391 18.925 5.02739 18.9249 4.68426 19.2682L3.68993 20.2626C3.34668 20.6058 3.34668 21.1623 3.68993 21.5055C3.86149 21.677 4.08637 21.7628 4.31137 21.7628Z" fill="#0D89B5"/>
<path d="M22.9102 13.4766H24.3164C24.8018 13.4766 25.1953 13.0832 25.1953 12.5977C25.1953 12.1121 24.8018 11.7188 24.3164 11.7188H22.9102C22.4248 11.7188 22.0312 12.1121 22.0312 12.5977C22.0312 13.0832 22.4248 13.4766 22.9102 13.4766Z" fill="#0D89B5"/>
<path d="M0.878906 13.4766H2.28516C2.77055 13.4766 3.16406 13.0832 3.16406 12.5977C3.16406 12.1121 2.77055 11.7188 2.28516 11.7188H0.878906C0.393516 11.7188 0 12.1121 0 12.5977C0 13.0832 0.393516 13.4766 0.878906 13.4766Z" fill="#0D89B5"/>
<path d="M20.2625 21.5053C20.4341 21.677 20.6591 21.7628 20.884 21.7628C21.1088 21.7628 21.3338 21.677 21.5054 21.5055C21.8487 21.1622 21.8487 20.6057 21.5054 20.2626L20.5111 19.2682C20.1679 18.925 19.6114 18.9249 19.2682 19.2681C18.9249 19.6114 18.9249 20.1679 19.2682 20.511L20.2625 21.5053Z" fill="#0D89B5"/>
<path d="M4.68414 5.92673C4.85571 6.09841 5.08071 6.18419 5.30559 6.18419C5.53047 6.18419 5.75547 6.09841 5.92703 5.92685C6.27028 5.5836 6.27028 5.02708 5.92703 4.68396L4.9327 3.68962C4.58945 3.34626 4.03293 3.34638 3.68981 3.6895C3.34656 4.03274 3.34656 4.58927 3.68981 4.93239L4.68414 5.92673Z" fill="#0D89B5"/>
</svg>
