<svg width="14" height="20" viewBox="0 0 14 20" fill="none" xmlns="http://www.w3.org/2000/svg">
<path d="M6.70539 0.12207L0.455392 6.37207C0.292619 6.53484 0.292619 6.79852 0.455393 6.96125C0.618166 7.12402 0.881838 7.12402 1.04457 6.96125L6.58332 1.4225L6.58332 19.5833C6.58332 19.8136 6.76969 20 7 20C7.23032 20 7.41668 19.8136 7.41668 19.5833L7.41668 1.4225L12.9554 6.96125C13.1182 7.12402 13.3818 7.12402 13.5446 6.96125C13.6259 6.87988 13.6666 6.77324 13.6666 6.66664C13.6666 6.56004 13.6259 6.45344 13.5446 6.37203L7.29457 0.12203C7.13184 -0.0407031 6.86817 -0.0407031 6.70539 0.12207Z" fill="#0D89B5"/>
</svg>
